<?xml version="1.0" encoding="utf-8"?><svg version="1.1" xmlns="http://www.w3.org/2000/svg" x="0px" y="0px" viewBox="0 0 100 100">
<path d="M50,14c-19.851,0-36,16.149-36,36c0,10.681,4.68,20.285,12.092,26.884c4.059-7.124,8.297-12.114,10.962-13.595 c-4.455-3.712-7.293-9.299-7.293-15.551C29.762,36.561,38.823,27.5,50,27.5s20.238,9.061,20.238,20.238 c0,6.252-2.838,11.839-7.293,15.551c3.512,2.308,7.499,7.146,10.962,13.595C81.32,70.285,86,60.681,86,50C86,30.149,69.851,14,50,14 z" fill="#f2f2f2"/>
<path d="M50,8C26.841,8,8,26.841,8,50s18.841,42,42,42s42-18.841,42-42S73.159,8,50,8z M73.908,76.884 c0.002,0.006-5.786-10.627-10.962-13.595c4.455-3.712,7.293-9.299,7.293-15.551C70.238,36.561,61.177,27.5,50,27.5 s-20.238,9.061-20.238,20.238c0,6.252,2.838,11.839,7.293,15.551c-5.176,2.968-10.964,13.6-10.962,13.595 C18.68,70.285,14,60.681,14,50c0-19.851,16.149-36,36-36s36,16.149,36,36C86,60.681,81.32,70.285,73.908,76.884z" fill="#555"/>
</svg>
