<?xml version="1.0" encoding="utf-8"?>
<!-- Generator: Adobe Illustrator 21.0.0, SVG Export Plug-In . SVG Version: 6.00 Build 0)  -->
<svg version="1.1" id="Layer_1" xmlns="http://www.w3.org/2000/svg" xmlns:xlink="http://www.w3.org/1999/xlink" x="0px" y="0px"
	 viewBox="0 0 287 49" style="enable-background:new 0 0 287 49;" xml:space="preserve">
<g>
	<path style="fill:#53C8E9;" d="M40.4,26.1c0-0.7-0.1-1.4-0.3-2c-0.2-0.7-0.4-1.2-0.7-1.7c-0.3-0.5-0.7-0.9-1.1-1.1
		s-0.9-0.4-1.4-0.4c-0.6,0-1.2,0.1-1.8,0.3c-0.6,0.2-1.2,0.4-1.8,0.8c-0.6,0.3-1.2,0.7-1.7,1.1c-0.5,0.4-1,0.9-1.4,1.4v23.9h-9.8
		V26.1c0-0.7-0.1-1.4-0.3-2c-0.2-0.7-0.4-1.2-0.8-1.7c-0.3-0.5-0.7-0.9-1.1-1.1s-0.9-0.4-1.3-0.4c-0.5,0-1.1,0.1-1.7,0.3
		c-0.6,0.2-1.2,0.4-1.8,0.8c-0.6,0.3-1.2,0.7-1.7,1.1s-1.1,0.9-1.5,1.4v23.9H0.3V15.7h9.8v2.8c1.6-1,3.2-1.9,4.8-2.5
		c1.7-0.6,3.2-0.9,4.8-0.9c0.9,0,1.7,0.1,2.6,0.3c0.9,0.2,1.7,0.5,2.5,0.8s1.5,0.8,2.2,1.3c0.7,0.5,1.2,1.1,1.7,1.7
		c0.7-0.6,1.6-1.1,2.5-1.7s1.8-0.9,2.8-1.3c1-0.4,2-0.6,3-0.8s2-0.3,3-0.3c1.4,0,2.7,0.3,3.9,0.8c1.2,0.5,2.3,1.3,3.3,2.2
		s1.7,2,2.2,3.3c0.5,1.2,0.8,2.6,0.8,4v22.9h-9.9V26.1z"/>
	<path style="fill:#53C8E9;" d="M83.9,48.2H74v-2.6c-0.5,0.5-1.1,0.9-1.6,1.3c-0.5,0.4-1.1,0.7-1.7,1s-1.4,0.5-2.2,0.7
		c-0.8,0.2-1.8,0.2-2.9,0.2c-1.5,0-2.8-0.2-4-0.6c-1.2-0.4-2.2-1-3-1.8c-0.8-0.7-1.5-1.6-1.9-2.7c-0.5-1-0.7-2.1-0.7-3.3
		c0-1.3,0.2-2.4,0.7-3.4c0.5-1,1.1-1.9,1.9-2.7c0.8-0.8,1.8-1.5,2.9-2.2c1.1-0.6,2.3-1.2,3.5-1.8c1.3-0.5,2.6-1,3.9-1.5
		c1.3-0.4,2.7-0.9,4-1.3l1.1-0.2v-3.2c0-2.1-0.4-3.5-1.2-4.4c-0.8-0.9-1.8-1.3-3.2-1.3c-0.8,0-1.4,0.1-2,0.3c-0.5,0.2-1,0.5-1.3,0.8
		c-0.3,0.4-0.5,0.8-0.7,1.2c-0.1,0.5-0.2,1-0.2,1.5c0,0.6-0.1,1.2-0.2,1.8s-0.4,1.1-0.7,1.5c-0.3,0.4-0.8,0.8-1.4,1.1
		C62.7,26.8,62,27,61.1,27c-1.4,0-2.5-0.4-3.4-1.2s-1.3-1.8-1.3-3c0-1.1,0.4-2.2,1.1-3.2c0.8-1,1.8-1.8,3.1-2.5
		c1.3-0.7,2.8-1.2,4.5-1.6c1.7-0.4,3.5-0.6,5.4-0.6c2.3,0,4.3,0.2,6,0.6c1.7,0.4,3.1,1,4.2,1.8c1.1,0.8,1.9,1.7,2.4,2.8
		c0.5,1.1,0.8,2.3,0.8,3.7V48.2z M74,31.3c-1,0.4-1.9,0.9-2.9,1.4c-1,0.5-1.9,1.1-2.6,1.8c-0.8,0.6-1.4,1.3-1.9,2
		c-0.5,0.7-0.7,1.5-0.7,2.2c0,0.6,0.1,1.2,0.2,1.8c0.2,0.6,0.4,1,0.7,1.5s0.6,0.7,0.9,1c0.4,0.2,0.7,0.4,1.1,0.4
		c0.8,0,1.6-0.2,2.4-0.7c0.8-0.5,1.7-1.1,2.7-1.9V31.3z"/>
	<path style="fill:#53C8E9;" d="M102.5,26.7l12.9-11.7h7.2l-14.4,13l17.3,20.1h-11.7l-11.3-13.1v13.1h-9.9V2.6l9.9-2.7V26.7z"/>
	<path style="fill:#53C8E9;" d="M142.6,48.9c-2.3,0-4.5-0.4-6.5-1.3c-2-0.9-3.8-2-5.3-3.5s-2.7-3.1-3.6-5.1c-0.9-1.9-1.3-4-1.3-6.1
		c0-2.6,0.4-4.9,1.2-7.1c0.8-2.2,1.9-4.1,3.4-5.7c1.5-1.6,3.2-2.9,5.3-3.8c2.1-0.9,4.4-1.4,6.9-1.4c2.3,0,4.4,0.4,6.2,1.1
		s3.5,1.7,4.8,3c1.3,1.2,2.4,2.7,3.1,4.4c0.7,1.7,1.1,3.5,1.1,5.4h-22.5c0.1,1.8,0.3,3.5,0.8,5.2c0.4,1.6,1,3.1,1.8,4.3
		c0.8,1.2,1.7,2.2,2.7,3c1,0.7,2.2,1.1,3.4,1.1c1.1,0,2.2-0.2,3.2-0.6c1-0.4,2-0.9,2.9-1.5c0.9-0.6,1.7-1.4,2.3-2.3
		c0.7-0.9,1.1-1.8,1.4-2.8l5.1,0.7c-0.5,1.8-1.3,3.4-2.4,5c-1.1,1.6-2.4,2.9-3.9,4.1s-3.1,2.1-4.9,2.7S144.4,48.9,142.6,48.9z
		 M146.8,25.5c-0.1-0.9-0.3-1.8-0.6-2.6s-0.8-1.5-1.3-2s-1.1-1-1.8-1.3c-0.7-0.3-1.4-0.5-2.2-0.5c-0.6,0-1.2,0.2-1.8,0.5
		c-0.6,0.3-1.1,0.7-1.6,1.3c-0.5,0.6-0.9,1.2-1.2,2c-0.3,0.8-0.5,1.7-0.6,2.7H146.8z"/>
	<path style="fill:#53C8E9;" d="M171.4,15.1l8.6,19.7l8.4-19.9h2l8.6,19.6l8.3-19.4h6.4l-14.5,33.8h-4.6l-7.1-16.3l-7,16.3h-4.8
		L161,15.1H171.4z"/>
	<path style="fill:#53C8E9;" d="M232.1,48.9c-2.3,0-4.5-0.4-6.5-1.3c-2-0.9-3.8-2-5.3-3.5s-2.7-3.1-3.6-5.1c-0.9-1.9-1.3-4-1.3-6.1
		c0-2.6,0.4-4.9,1.2-7.1c0.8-2.2,1.9-4.1,3.4-5.7c1.5-1.6,3.2-2.9,5.3-3.8c2.1-0.9,4.4-1.4,6.9-1.4c2.3,0,4.4,0.4,6.2,1.1
		s3.5,1.7,4.8,3c1.3,1.2,2.4,2.7,3.1,4.4c0.7,1.7,1.1,3.5,1.1,5.4h-22.5c0.1,1.8,0.3,3.5,0.8,5.2c0.4,1.6,1,3.1,1.8,4.3
		c0.8,1.2,1.7,2.2,2.7,3c1,0.7,2.2,1.1,3.4,1.1c1.1,0,2.2-0.2,3.2-0.6c1-0.4,2-0.9,2.9-1.5c0.9-0.6,1.7-1.4,2.3-2.3
		c0.7-0.9,1.1-1.8,1.4-2.8l5.1,0.7c-0.5,1.8-1.3,3.4-2.4,5c-1.1,1.6-2.4,2.9-3.9,4.1s-3.1,2.1-4.9,2.7S233.9,48.9,232.1,48.9z
		 M236.3,25.5c-0.1-0.9-0.3-1.8-0.6-2.6s-0.8-1.5-1.3-2s-1.1-1-1.8-1.3c-0.7-0.3-1.4-0.5-2.2-0.5c-0.6,0-1.2,0.2-1.8,0.5
		c-0.6,0.3-1.1,0.7-1.6,1.3c-0.5,0.6-0.9,1.2-1.2,2c-0.3,0.8-0.5,1.7-0.6,2.7H236.3z"/>
	<path style="fill:#53C8E9;" d="M254.8,2.6l9.9-2.7v18c1.3-0.8,2.7-1.5,4.2-2c1.5-0.5,2.9-0.8,4.3-0.8c2,0,3.9,0.4,5.6,1.2
		s3.2,1.8,4.4,3.2c1.2,1.3,2.2,2.9,2.9,4.6c0.7,1.8,1.1,3.6,1.1,5.6c0,2.6-0.5,5.1-1.5,7.4c-1,2.3-2.3,4.4-4,6.1
		c-1.7,1.7-3.7,3.1-6,4.2c-2.3,1-4.7,1.5-7.3,1.5c-2.6,0-5.1-0.4-7.4-1.1c-2.3-0.7-4.4-1.8-6.3-3.3V2.6z M264.7,42.3
		c0.7,0.6,1.4,1.1,2.2,1.6s1.7,0.7,2.8,0.7c1.1,0,2.1-0.3,3-1s1.7-1.6,2.3-2.8c0.6-1.2,1.1-2.6,1.5-4.2c0.4-1.6,0.5-3.3,0.5-5.2
		c0-1.4-0.2-2.7-0.5-3.9c-0.4-1.2-0.8-2.3-1.5-3.2c-0.6-0.9-1.4-1.6-2.2-2.2c-0.8-0.5-1.7-0.8-2.7-0.8c-0.9,0-1.9,0.3-2.9,0.8
		c-1,0.5-1.9,1.2-2.6,2V42.3z"/>
</g>
</svg>
