<?xml version="1.0" encoding="utf-8"?>
<!-- Generator: Adobe Illustrator 21.0.0, SVG Export Plug-In . SVG Version: 6.00 Build 0)  -->
<svg version="1.1" id="Layer_1" xmlns="http://www.w3.org/2000/svg" xmlns:xlink="http://www.w3.org/1999/xlink" x="0px" y="0px"
	 viewBox="0 0 189 149" style="enable-background:new 0 0 189 149;" xml:space="preserve">
<g>
	<path d="M5.2,119.6h5.5l8,15.7l7.9-15.7h5.4v23h-5.7v-15l-7.5,15h-2.2l-7.8-15.2v15.2H5.2V119.6z"/>
	<path d="M48.5,119.1l10.8,23.6h-5.8l-2.9-6.3h-9l-3,6.3h-3.8L46,119.1H48.5z M42.7,134.2h7l-3.4-7.4L42.7,134.2z"/>
	<path d="M62.1,119.6h5.7v8.6l10.2-8.6h4.4l-11.5,9.7l14.6,13.3h-6.8l-10.9-9.9v9.9h-5.7V119.6z"/>
	<path d="M104.3,119.6v1.9H92.8v7.6h9.6v2h-9.6v9.1h11.6v2.4H87.1v-23H104.3z"/>
	<path d="M111.9,119.6l5.9,14.9l5.9-15.2l5.9,15.1l5.7-14.8h3.8l-9.1,23.4h-2.6l-4.7-12.1L118,143h-2.6l-9.2-23.4H111.9z"/>
	<path d="M159,119.6v1.9h-11.6v7.6h9.6v2h-9.6v9.1H159v2.4h-17.2v-23H159z"/>
	<path d="M163.8,119.6h9.9c1.3,0,2.6,0.1,3.7,0.4s2.1,0.7,2.8,1.2c0.8,0.5,1.4,1.1,1.9,1.9s0.7,1.5,0.7,2.4c0,0.5-0.1,1.1-0.2,1.5
		c-0.1,0.5-0.3,0.9-0.6,1.3c-0.3,0.4-0.6,0.8-1.1,1.2c-0.5,0.4-1,0.8-1.7,1.1c0.7,0.2,1.3,0.5,1.9,0.9c0.6,0.4,1.1,0.8,1.5,1.3
		c0.4,0.5,0.7,1,1,1.6c0.2,0.6,0.4,1.2,0.4,1.9c0,0.9-0.2,1.7-0.6,2.5c-0.4,0.8-1,1.5-1.8,2c-0.8,0.6-1.7,1-2.8,1.4
		c-1.1,0.3-2.3,0.5-3.6,0.5h-11.3V119.6z M169.4,129.6h3.8c0.6,0,1.1-0.1,1.6-0.3c0.5-0.2,0.9-0.5,1.2-0.8c0.3-0.3,0.6-0.7,0.7-1.2
		c0.2-0.5,0.3-1,0.3-1.5c0-0.6-0.1-1.1-0.3-1.6c-0.2-0.5-0.5-0.9-1-1.3c-0.4-0.4-1-0.6-1.7-0.8c-0.7-0.2-1.5-0.3-2.4-0.3h-2.1V129.6
		z M169.4,140.3h3.1c0.9,0,1.7-0.1,2.4-0.3c0.7-0.2,1.2-0.5,1.7-0.8c0.4-0.4,0.8-0.8,1-1.2c0.2-0.5,0.3-1,0.3-1.6
		c0-0.6-0.1-1.2-0.3-1.8c-0.2-0.6-0.5-1-0.9-1.4c-0.4-0.4-1-0.7-1.7-1c-0.7-0.2-1.6-0.3-2.6-0.3h-2.9V140.3z"/>
</g>
<polygon points="161.4,8 161.4,17.1 104.8,53.6 104.8,8 84.2,8 84.2,17.1 27.6,53.6 27.6,8 7,8 7,113.6 27.6,113.6 27.6,78.2 
	84.2,41.6 84.2,113.6 104.8,113.6 104.8,78.2 161.4,41.6 161.4,113.6 182,113.6 182,8 "/>
</svg>
