<?xml version="1.0" encoding="utf-8"?>
<!-- Generator: Adobe Illustrator 21.0.0, SVG Export Plug-In . SVG Version: 6.00 Build 0)  -->
<svg version="1.1" id="Layer_1" xmlns="http://www.w3.org/2000/svg" xmlns:xlink="http://www.w3.org/1999/xlink" x="0px" y="0px"
	 viewBox="0 0 80 13" style="enable-background:new 0 0 80 13;" xml:space="preserve">
<g>
	<path style="fill:#68CDED;" d="M0.3,5.4c0-1,0-1.8-0.1-2.6h1.5l0.1,1.6h0.1c0.5-0.9,1.4-1.8,3-1.8c1.3,0,2.3,0.8,2.7,1.9h0
		c0.3-0.5,0.7-1,1.1-1.3c0.6-0.4,1.2-0.7,2.1-0.7c1.3,0,3.2,0.8,3.2,4.2v5.7h-1.7V7c0-1.9-0.7-3-2.1-3c-1,0-1.8,0.7-2.1,1.6
		C8.2,5.9,8.1,6.2,8.1,6.5v6H6.4V6.7c0-1.5-0.7-2.7-2-2.7C3.3,4,2.5,4.9,2.2,5.8C2.1,6.1,2,6.4,2,6.7v5.8H0.3V5.4z"/>
	<path style="fill:#68CDED;" d="M22.4,12.5l-0.1-1.2h-0.1c-0.5,0.8-1.6,1.4-3,1.4c-2,0-3-1.4-3-2.8c0-2.3,2.1-3.6,5.8-3.6V6.1
		c0-0.8-0.2-2.2-2.2-2.2c-0.9,0-1.8,0.3-2.5,0.7l-0.4-1.2c0.8-0.5,2-0.9,3.2-0.9c3,0,3.7,2,3.7,4v3.6c0,0.8,0,1.7,0.2,2.3H22.4z
		 M22.1,7.6c-1.9,0-4.1,0.3-4.1,2.2c0,1.1,0.8,1.7,1.7,1.7c1.3,0,2.1-0.8,2.3-1.6c0.1-0.2,0.1-0.4,0.1-0.6V7.6z"/>
	<path style="fill:#68CDED;" d="M28.4,7.3L28.4,7.3c0.3-0.3,0.6-0.8,0.9-1.1l2.8-3.3h2.1l-3.7,4l4.3,5.7h-2.1l-3.3-4.6l-0.9,1v3.6
		h-1.7V0.3h1.7V7.3z"/>
	<path style="fill:#68CDED;" d="M37,8c0,2.4,1.6,3.4,3.3,3.4c1.3,0,2-0.2,2.7-0.5l0.3,1.3c-0.6,0.3-1.7,0.6-3.2,0.6
		c-3,0-4.8-2-4.8-4.9c0-2.9,1.7-5.2,4.5-5.2c3.2,0,4,2.8,4,4.6c0,0.4,0,0.6-0.1,0.8H37z M42.2,6.7c0-1.1-0.5-2.9-2.4-2.9
		c-1.8,0-2.6,1.6-2.7,2.9H42.2z"/>
	<path style="fill:#68CDED;" d="M46.7,2.8L48,7.7c0.3,1.1,0.5,2.1,0.7,3.1h0.1c0.2-1,0.5-2,0.9-3.1l1.6-4.9h1.5l1.5,4.8
		c0.4,1.2,0.6,2.2,0.9,3.2h0.1c0.2-1,0.4-2,0.7-3.1l1.4-4.9H59l-3.1,9.7h-1.6l-1.5-4.6c-0.3-1.1-0.6-2-0.9-3.2h0
		c-0.2,1.2-0.5,2.2-0.9,3.2l-1.6,4.6h-1.6l-2.9-9.7H46.7z"/>
	<path style="fill:#68CDED;" d="M61.5,8c0,2.4,1.6,3.4,3.3,3.4c1.3,0,2-0.2,2.7-0.5l0.3,1.3c-0.6,0.3-1.7,0.6-3.2,0.6
		c-3,0-4.8-2-4.8-4.9c0-2.9,1.7-5.2,4.5-5.2c3.2,0,4,2.8,4,4.6c0,0.4,0,0.6-0.1,0.8H61.5z M66.7,6.7c0-1.1-0.5-2.9-2.4-2.9
		c-1.8,0-2.6,1.6-2.7,2.9H66.7z"/>
	<path style="fill:#68CDED;" d="M70.5,12.5c0-0.7,0.1-1.6,0.1-2.5V0.3h1.7v4.1h0c0.6-1.1,1.7-1.8,3.3-1.8c2.4,0,4.1,2,4.1,4.9
		c0,3.5-2.2,5.2-4.3,5.2c-1.4,0-2.5-0.5-3.2-1.8h-0.1L72,12.5H70.5z M72.3,8.6c0,0.2,0,0.4,0.1,0.6c0.3,1.2,1.4,2.1,2.6,2.1
		c1.8,0,2.9-1.5,2.9-3.7C78,5.7,77,4,75.1,4c-1.2,0-2.3,0.8-2.7,2.2c0,0.2-0.1,0.4-0.1,0.7V8.6z"/>
</g>
</svg>
