<?xml version="1.0" encoding="utf-8"?>
<!-- Generator: Adobe Illustrator 21.0.0, SVG Export Plug-In . SVG Version: 6.00 Build 0)  -->
<svg version="1.1" id="圖層_1" xmlns="http://www.w3.org/2000/svg" xmlns:xlink="http://www.w3.org/1999/xlink" x="0px" y="0px"
	 viewBox="0 0 100 100" style="enable-background:new 0 0 100 100;" xml:space="preserve">
<rect x="20" y="45" style="fill:#E0E0E0;" width="60" height="10"/>
<rect x="20" y="60" style="fill:#E0E0E0;" width="30" height="10"/>
<rect x="20" y="30" style="fill:#E0E0E0;" width="60" height="10"/>
<path style="fill:#03AFF3;" d="M90,15H60.707l-5.773,10H85v50H26.066l-5.773,10H90c2.761,0,5-2.239,5-5V20
	C95,17.239,92.761,15,90,15z"/>
<path style="fill:#F73D7E;" d="M15,75V25h39.934l5.773-10H10c-2.761,0-5,2.239-5,5v60c0,2.761,2.239,5,5,5h10.293l5.773-10H15z"/>
</svg>
