<?xml version="1.0" encoding="utf-8"?>
<!-- Generator: Adobe Illustrator 21.0.0, SVG Export Plug-In . SVG Version: 6.00 Build 0)  -->
<svg version="1.1" id="圖層_1" xmlns="http://www.w3.org/2000/svg" xmlns:xlink="http://www.w3.org/1999/xlink" x="0px" y="0px"
	 viewBox="0 0 100 100" style="enable-background:new 0 0 100 100;" xml:space="preserve">
<path style="fill:#E0E0E0;" d="M90,85H10c-2.761,0-5-2.239-5-5V20c0-2.761,2.239-5,5-5h80c2.761,0,5,2.239,5,5v60
	C95,82.761,92.761,85,90,85z"/>
<polygon style="fill:#03AFF3;" points="85,55 85,45 43.387,45 37.613,55 "/>
<polygon style="fill:#03AFF3;" points="50,70 50,60 34.727,60 28.953,70 "/>
<polygon style="fill:#03AFF3;" points="85,40 85,30 52.047,30 46.273,40 "/>
<polygon style="fill:#F73D7E;" points="14.5,55 37.113,55 42.887,45 14.5,45 "/>
<polygon style="fill:#F73D7E;" points="14.5,70 28.453,70 34.227,60 14.5,60 "/>
<polygon style="fill:#F73D7E;" points="14.5,40 45.773,40 51.547,30 14.5,30 "/>
</svg>
