<?xml version="1.0" encoding="utf-8"?>
<!-- Generator: Adobe Illustrator 21.0.0, SVG Export Plug-In . SVG Version: 6.00 Build 0)  -->
<svg version="1.1" id="Layer_1" xmlns="http://www.w3.org/2000/svg" xmlns:xlink="http://www.w3.org/1999/xlink" x="0px" y="0px"
	 viewBox="0 0 300 38" style="enable-background:new 0 0 300 38;" xml:space="preserve">
<g>
	<polygon style="fill:#F7F7F7;" points="261.3,0 223.3,38 237.7,38 275.7,0 	"/>
	<polygon style="fill:#F7F7F7;" points="300,1.3 263.3,38 277.7,38 300,15.7 	"/>
	<polygon style="fill:#F7F7F7;" points="41.3,0 3.3,38 17.7,38 55.7,0 	"/>
	<polygon style="fill:#F7F7F7;" points="281.3,0 243.3,38 257.7,38 295.7,0 	"/>
	<polygon style="fill:#F7F7F7;" points="121.3,0 83.3,38 97.7,38 135.7,0 	"/>
	<polygon style="fill:#F7F7F7;" points="1.3,0 0,1.3 0,15.7 15.7,0 	"/>
	<polygon style="fill:#F7F7F7;" points="300,21.3 283.3,38 297.7,38 300,35.7 	"/>
	<polygon style="fill:#F7F7F7;" points="21.3,0 0,21.3 0,35.7 35.7,0 	"/>
	<polygon style="fill:#F7F7F7;" points="161.3,0 123.3,38 137.7,38 175.7,0 	"/>
	<polygon style="fill:#F7F7F7;" points="141.3,0 103.3,38 117.7,38 155.7,0 	"/>
	<polygon style="fill:#F7F7F7;" points="101.3,0 63.3,38 77.7,38 115.7,0 	"/>
	<polygon style="fill:#F7F7F7;" points="201.3,0 163.3,38 177.7,38 215.7,0 	"/>
	<polygon style="fill:#F7F7F7;" points="241.3,0 203.3,38 217.7,38 255.7,0 	"/>
	<polygon style="fill:#F7F7F7;" points="221.3,0 183.3,38 197.7,38 235.7,0 	"/>
	<polygon style="fill:#F7F7F7;" points="61.3,0 23.3,38 37.7,38 75.7,0 	"/>
	<polygon style="fill:#F7F7F7;" points="81.3,0 43.3,38 57.7,38 95.7,0 	"/>
	<polygon style="fill:#F7F7F7;" points="181.3,0 143.3,38 157.7,38 195.7,0 	"/>
</g>
<g>
	<polygon style="fill:#E6E6E6;" points="0,0 0,1.3 1.3,0 	"/>
	<polygon style="fill:#E6E6E6;" points="15.7,0 0,15.7 0,21.3 21.3,0 	"/>
	<polygon style="fill:#E6E6E6;" points="35.7,0 0,35.7 0,38 3.3,38 41.3,0 	"/>
	<polygon style="fill:#E6E6E6;" points="55.7,0 17.7,38 23.3,38 61.3,0 	"/>
	<polygon style="fill:#E6E6E6;" points="75.7,0 37.7,38 43.3,38 81.3,0 	"/>
	<polygon style="fill:#E6E6E6;" points="95.7,0 57.7,38 63.3,38 101.3,0 	"/>
	<polygon style="fill:#E6E6E6;" points="115.7,0 77.7,38 83.3,38 121.3,0 	"/>
	<polygon style="fill:#E6E6E6;" points="135.7,0 97.7,38 103.3,38 141.3,0 	"/>
	<polygon style="fill:#E6E6E6;" points="155.7,0 117.7,38 123.3,38 161.3,0 	"/>
	<polygon style="fill:#E6E6E6;" points="175.7,0 137.7,38 143.3,38 181.3,0 	"/>
	<polygon style="fill:#E6E6E6;" points="195.7,0 157.7,38 163.3,38 201.3,0 	"/>
	<polygon style="fill:#E6E6E6;" points="215.7,0 177.7,38 183.3,38 221.3,0 	"/>
	<polygon style="fill:#E6E6E6;" points="235.7,0 197.7,38 203.3,38 241.3,0 	"/>
	<polygon style="fill:#E6E6E6;" points="255.7,0 217.7,38 223.3,38 261.3,0 	"/>
	<polygon style="fill:#E6E6E6;" points="275.7,0 237.7,38 243.3,38 281.3,0 	"/>
	<polygon style="fill:#E6E6E6;" points="300,0 295.7,0 257.7,38 263.3,38 300,1.3 	"/>
	<polygon style="fill:#E6E6E6;" points="300,15.7 277.7,38 283.3,38 300,21.3 	"/>
	<polygon style="fill:#E6E6E6;" points="300,35.7 297.7,38 300,38 	"/>
</g>
<rect x="64.8" y="12" style="fill:none;" width="170.3" height="16"/>
<text transform="matrix(1 0 0 1 64.8321 26.3198)" style="fill:#E0E0E0; font-family:'ArialMT'; font-size:20px;">EDIT MODE </text>
</svg>
