<?xml version="1.0" encoding="utf-8"?>
<!-- Generator: Adobe Illustrator 21.0.0, SVG Export Plug-In . SVG Version: 6.00 Build 0)  -->
<svg version="1.1" id="Layer_1" xmlns="http://www.w3.org/2000/svg" xmlns:xlink="http://www.w3.org/1999/xlink" x="0px" y="0px"
	 viewBox="0 0 120 80" style="enable-background:new 0 0 120 80;" xml:space="preserve">
<path style="fill:#E0E0E0;" d="M110,75H10c-2.8,0-5-2.2-5-5V10c0-2.8,2.2-5,5-5h100c2.8,0,5,2.2,5,5v60C115,72.8,112.8,75,110,75z"
	/>
<rect x="15" y="15" style="fill:#FFFFFF;" width="55" height="10"/>
<rect x="15" y="35" style="fill:#FFFFFF;" width="90" height="5"/>
<rect x="15" y="45" style="fill:#FFFFFF;" width="35" height="5"/>
<path style="fill:#A0C8D7;" d="M35,65H20c-2.8,0-5-2.2-5-5v0c0-2.8,2.2-5,5-5h15c2.8,0,5,2.2,5,5v0C40,62.8,37.8,65,35,65z"/>
</svg>
